<?xml version="1.0" encoding="UTF-8" standalone="no"?>
<svg
   xmlns:dc="http://purl.org/dc/elements/1.1/"
   xmlns:cc="http://creativecommons.org/ns#"
   xmlns:rdf="http://www.w3.org/1999/02/22-rdf-syntax-ns#"
   xmlns:svg="http://www.w3.org/2000/svg"
   xmlns="http://www.w3.org/2000/svg"
   xmlns:sodipodi="http://sodipodi.sourceforge.net/DTD/sodipodi-0.dtd"
   xmlns:inkscape="http://www.inkscape.org/namespaces/inkscape"
   width="512pt"
   height="512pt"
   viewBox="0 0 512 512"
   version="1.1"
   id="svg2"
   inkscape:version="0.91 r13725"
   sodipodi:docname="calendar2.svg">
  <metadata
     id="metadata48">
    <rdf:RDF>
      <cc:Work
         rdf:about="">
        <dc:format>image/svg+xml</dc:format>
        <dc:type
           rdf:resource="http://purl.org/dc/dcmitype/StillImage" />
      </cc:Work>
    </rdf:RDF>
  </metadata>
  <defs
     id="defs46" />
  <sodipodi:namedview
     pagecolor="#ffffff"
     bordercolor="#666666"
     borderopacity="1"
     objecttolerance="10"
     gridtolerance="10"
     guidetolerance="10"
     inkscape:pageopacity="0"
     inkscape:pageshadow="2"
     inkscape:window-width="1536"
     inkscape:window-height="801"
     id="namedview44"
     showgrid="false"
     inkscape:zoom="0.7375"
     inkscape:cx="320"
     inkscape:cy="320"
     inkscape:window-x="-8"
     inkscape:window-y="-8"
     inkscape:window-maximized="1"
     inkscape:current-layer="svg2" />
  <g
     id="#ffffffff">
    <path
       fill="#ffffff"
       opacity="1.00"
       d=" M 0.00 0.00 L 124.52 0.00 C 114.80 0.16 105.94 8.15 105.19 17.91 C 104.75 25.26 105.12 32.64 105.00 40.00 C 94.99 40.10 84.98 39.76 74.98 40.23 C 51.70 41.48 29.45 53.79 15.70 72.57 C 5.65 85.96 0.24 102.59 0.00 119.30 L 0.00 0.00 Z"
       id="path5" />
    <path
       fill="#ffffff"
       opacity="1.00"
       d=" M 125.52 0.00 L 254.50 0.00 C 244.82 0.17 235.99 8.11 235.20 17.82 C 234.74 25.20 235.12 32.61 235.00 40.00 C 205.00 40.00 175.00 40.00 145.00 40.00 C 144.88 32.64 145.25 25.26 144.81 17.91 C 144.06 8.17 135.22 0.19 125.52 0.00 Z"
       id="path7" />
    <path
       fill="#ffffff"
       opacity="1.00"
       d=" M 255.52 0.00 L 385.51 0.00 C 375.80 0.17 366.94 8.15 366.19 17.90 C 365.75 25.26 366.12 32.64 366.00 40.00 C 335.67 40.00 305.33 40.00 275.00 40.00 C 274.88 32.63 275.25 25.25 274.80 17.89 C 274.05 8.16 265.21 0.18 255.52 0.00 Z"
       id="path9" />
    <path
       fill="#ffffff"
       opacity="1.00"
       d=" M 386.55 0.00 L 512.00 0.00 L 512.00 119.40 C 511.77 107.32 509.04 95.23 503.58 84.42 C 493.87 64.87 475.88 49.59 454.93 43.41 C 439.09 38.43 422.32 40.41 406.00 40.00 C 405.88 32.65 406.24 25.29 405.81 17.95 C 405.09 8.20 396.25 0.20 386.55 0.00 Z"
       id="path11" />
    <path
       fill="#ffffff"
       opacity="1.00"
       d=" M 53.39 90.32 C 60.36 84.02 69.60 80.38 78.98 80.12 C 87.65 79.84 96.33 80.08 105.00 80.00 C 105.08 87.03 104.84 94.06 105.11 101.09 C 105.38 107.86 109.44 114.30 115.42 117.50 C 121.47 120.87 129.30 120.73 135.23 117.13 C 140.85 113.84 144.62 107.62 144.89 101.10 C 145.16 94.07 144.92 87.03 145.00 80.00 C 175.00 80.00 205.00 80.00 235.00 80.00 C 235.08 87.03 234.84 94.07 235.11 101.09 C 235.38 107.61 239.14 113.84 244.77 117.13 C 250.69 120.72 258.51 120.87 264.57 117.51 C 270.54 114.32 274.61 107.88 274.89 101.11 C 275.16 94.08 274.92 87.04 275.00 80.00 C 305.33 80.00 335.67 80.00 366.00 80.00 C 366.08 87.03 365.84 94.07 366.11 101.10 C 366.38 107.86 370.43 114.29 376.39 117.48 C 382.44 120.87 390.28 120.73 396.21 117.14 C 401.85 113.85 405.62 107.61 405.89 101.08 C 406.16 94.06 405.92 87.03 406.00 80.00 C 415.69 80.15 425.40 79.68 435.08 80.28 C 450.61 81.23 464.85 92.33 469.71 107.08 C 472.13 113.76 472.04 120.97 472.00 127.98 C 472.00 163.00 471.99 198.03 472.01 233.05 C 471.83 239.54 474.73 246.10 480.01 249.95 C 486.47 254.92 496.00 255.26 502.80 250.78 C 508.36 247.31 511.73 240.96 512.00 234.47 L 512.00 389.75 C 511.55 371.99 507.71 354.20 499.75 338.26 C 483.21 303.57 449.13 277.90 411.16 271.81 C 389.76 268.14 367.36 270.40 347.14 278.33 C 319.47 289.04 296.09 310.34 282.90 336.92 C 271.39 359.61 267.50 386.05 271.80 411.11 C 277.88 449.11 303.57 483.23 338.29 499.77 C 354.16 507.68 371.85 511.52 389.52 512.00 L 233.46 512.00 C 241.75 511.79 249.59 506.08 251.99 498.09 C 254.98 489.29 250.83 478.80 242.58 474.50 C 236.95 471.23 230.23 472.11 224.01 472.00 C 176.31 471.98 128.62 472.04 80.92 471.97 C 71.37 471.97 61.76 468.83 54.46 462.59 C 45.14 454.98 39.92 443.00 40.03 431.04 C 39.97 328.01 40.01 224.98 40.00 121.95 C 39.73 110.13 44.44 98.17 53.39 90.32 M 120.46 190.57 C 111.99 192.40 105.37 200.31 105.09 208.98 C 104.50 217.47 110.05 225.89 118.07 228.71 C 125.21 231.42 133.80 229.56 139.14 224.09 C 144.76 218.57 146.50 209.62 143.44 202.38 C 139.98 193.53 129.68 188.24 120.46 190.57 M 207.45 190.58 C 199.38 192.35 192.92 199.60 192.19 207.84 C 191.28 215.20 194.94 222.87 201.23 226.80 C 207.22 230.70 215.34 230.98 221.58 227.50 C 227.25 224.46 231.23 218.49 231.82 212.08 C 232.59 205.46 229.73 198.58 224.50 194.45 C 219.81 190.62 213.33 189.19 207.45 190.58 M 294.46 190.57 C 284.90 192.59 277.90 202.41 279.18 212.11 C 279.94 221.22 287.78 229.06 296.89 229.82 C 305.22 230.85 313.80 225.94 317.16 218.26 C 320.36 211.36 319.15 202.68 314.11 196.96 C 309.41 191.40 301.53 188.87 294.46 190.57 M 381.48 190.57 C 373.39 192.33 366.91 199.61 366.18 207.87 C 365.29 215.23 368.96 222.88 375.24 226.80 C 381.21 230.69 389.31 230.98 395.55 227.52 C 401.24 224.48 405.24 218.49 405.82 212.06 C 406.55 205.68 403.92 199.04 399.03 194.89 C 394.31 190.75 387.58 189.14 381.48 190.57 M 120.43 277.58 C 110.53 279.67 103.49 290.12 105.30 300.08 C 106.62 310.32 116.92 318.21 127.15 316.82 C 138.13 315.97 146.72 304.75 144.70 293.93 C 143.32 282.78 131.29 274.69 120.43 277.58 M 207.47 277.57 C 199.36 279.34 192.87 286.66 192.18 294.94 C 191.16 303.23 196.05 311.77 203.69 315.14 C 210.61 318.38 219.34 317.15 225.07 312.08 C 231.27 306.85 233.60 297.67 230.72 290.10 C 227.54 280.86 216.94 275.17 207.47 277.57 M 120.49 364.57 C 112.40 366.32 105.91 373.61 105.18 381.87 C 104.29 389.20 107.92 396.82 114.16 400.75 C 120.16 404.70 128.33 405.00 134.60 401.49 C 140.25 398.45 144.21 392.51 144.82 386.13 C 145.57 379.72 142.94 373.04 138.02 368.87 C 133.30 364.75 126.58 363.14 120.49 364.57 M 207.46 364.57 C 199.38 366.34 192.91 373.62 192.18 381.86 C 191.29 389.19 194.92 396.82 201.17 400.76 C 207.16 404.70 215.32 405.00 221.58 401.50 C 227.24 398.46 231.21 392.52 231.82 386.13 C 232.60 379.49 229.74 372.58 224.50 368.45 C 219.81 364.62 213.34 363.19 207.46 364.57 Z"
       id="path13" />
    <path
       fill="#ffffff"
       opacity="1.00"
       d=" M 380.60 310.72 C 398.45 308.38 417.06 312.21 432.47 321.52 C 448.65 331.16 461.31 346.61 467.45 364.43 C 472.79 379.68 473.40 396.56 469.12 412.15 C 464.45 429.65 453.60 445.39 439.02 456.10 C 424.47 466.97 406.14 472.62 388.00 471.87 C 371.36 471.31 354.95 465.40 341.79 455.21 C 327.46 444.26 316.91 428.40 312.56 410.89 C 307.14 390.06 310.62 367.10 321.96 348.81 C 334.46 328.15 356.62 313.69 380.60 310.72 M 377.44 335.36 C 373.09 339.29 370.85 345.20 371.01 351.03 C 371.06 364.69 370.87 378.36 371.10 392.02 C 371.35 401.93 380.03 410.63 389.94 410.90 C 399.97 411.11 410.02 410.99 420.05 410.96 C 428.51 411.03 436.60 405.16 439.01 397.03 C 441.98 388.23 437.79 377.76 429.54 373.48 C 423.92 370.22 417.21 371.12 411.00 371.00 C 410.93 363.65 411.14 356.29 410.90 348.94 C 410.62 341.15 405.26 333.90 397.94 331.29 C 391.05 328.69 382.80 330.29 377.44 335.36 Z"
       id="path15" />
    <path
       fill="#ffffff"
       opacity="1.00"
       d=" M 499.79 443.66 C 507.69 427.80 511.52 410.13 512.00 392.48 L 512.00 512.00 L 392.42 512.00 C 398.23 511.62 404.07 511.48 409.81 510.40 C 448.34 504.70 483.07 478.80 499.79 443.66 Z"
       id="path17" />
    <path
       fill="#ffffff"
       opacity="1.00"
       d=" M 0.00 432.52 C 0.13 454.48 9.72 476.14 26.01 490.88 C 40.36 504.24 59.77 511.80 79.35 512.00 L 0.00 512.00 L 0.00 432.52 Z"
       id="path19" />
  </g>
  <g
     id="#000000ff">
    <path
       fill="#000000"
       opacity="1.00"
       d=" M 124.52 0.00 L 125.52 0.00 C 135.22 0.19 144.06 8.17 144.81 17.91 C 145.25 25.26 144.88 32.64 145.00 40.00 C 175.00 40.00 205.00 40.00 235.00 40.00 C 235.12 32.61 234.74 25.20 235.20 17.82 C 235.99 8.11 244.82 0.17 254.50 0.00 L 255.52 0.00 C 265.21 0.18 274.05 8.16 274.80 17.89 C 275.25 25.25 274.88 32.63 275.00 40.00 C 305.33 40.00 335.67 40.00 366.00 40.00 C 366.12 32.64 365.75 25.26 366.19 17.90 C 366.94 8.15 375.80 0.17 385.51 0.00 L 386.55 0.00 C 396.25 0.20 405.09 8.20 405.81 17.95 C 406.24 25.29 405.88 32.65 406.00 40.00 C 422.32 40.41 439.09 38.43 454.93 43.41 C 475.88 49.59 493.87 64.87 503.58 84.42 C 509.04 95.23 511.77 107.32 512.00 119.40 L 512.00 234.47 C 511.73 240.96 508.36 247.31 502.80 250.78 C 496.00 255.26 486.47 254.92 480.01 249.95 C 474.73 246.10 471.83 239.54 472.01 233.05 C 471.99 198.03 472.00 163.00 472.00 127.98 C 472.04 120.97 472.13 113.76 469.71 107.08 C 464.85 92.33 450.61 81.23 435.08 80.28 C 425.40 79.68 415.69 80.15 406.00 80.00 C 405.92 87.03 406.16 94.06 405.89 101.08 C 405.62 107.61 401.85 113.85 396.21 117.14 C 390.28 120.73 382.44 120.87 376.39 117.48 C 370.43 114.29 366.38 107.86 366.11 101.10 C 365.84 94.07 366.08 87.03 366.00 80.00 C 335.67 80.00 305.33 80.00 275.00 80.00 C 274.92 87.04 275.16 94.08 274.89 101.11 C 274.61 107.88 270.54 114.32 264.57 117.51 C 258.51 120.87 250.69 120.72 244.77 117.13 C 239.14 113.84 235.38 107.61 235.11 101.09 C 234.84 94.07 235.08 87.03 235.00 80.00 C 205.00 80.00 175.00 80.00 145.00 80.00 C 144.92 87.03 145.16 94.07 144.89 101.10 C 144.62 107.62 140.85 113.84 135.23 117.13 C 129.30 120.73 121.47 120.87 115.42 117.50 C 109.44 114.30 105.38 107.86 105.11 101.09 C 104.84 94.06 105.08 87.03 105.00 80.00 C 96.33 80.08 87.65 79.84 78.98 80.12 C 69.60 80.38 60.36 84.02 53.39 90.32 C 44.44 98.17 39.73 110.13 40.00 121.95 C 40.01 224.98 39.97 328.01 40.03 431.04 C 39.92 443.00 45.14 454.98 54.46 462.59 C 61.76 468.83 71.37 471.97 80.92 471.97 C 128.62 472.04 176.31 471.98 224.01 472.00 C 230.23 472.11 236.95 471.23 242.58 474.50 C 250.83 478.80 254.98 489.29 251.99 498.09 C 249.59 506.08 241.75 511.79 233.46 512.00 L 79.35 512.00 C 59.77 511.80 40.36 504.24 26.01 490.88 C 9.72 476.14 0.13 454.48 0.00 432.52 L 0.00 119.30 C 0.24 102.59 5.65 85.96 15.70 72.57 C 29.45 53.79 51.70 41.48 74.98 40.23 C 84.98 39.76 94.99 40.10 105.00 40.00 C 105.12 32.64 104.75 25.26 105.19 17.91 C 105.94 8.15 114.80 0.16 124.52 0.00 Z"
       id="path22" />
    <path
       fill="#000000"
       opacity="1.00"
       d=" M 120.46 190.57 C 129.68 188.24 139.98 193.53 143.44 202.38 C 146.50 209.62 144.76 218.57 139.14 224.09 C 133.80 229.56 125.21 231.42 118.07 228.71 C 110.05 225.89 104.50 217.47 105.09 208.98 C 105.37 200.31 111.99 192.40 120.46 190.57 Z"
       id="path24" />
    <path
       fill="#000000"
       opacity="1.00"
       d=" M 207.45 190.58 C 213.33 189.19 219.81 190.62 224.50 194.45 C 229.73 198.58 232.59 205.46 231.82 212.08 C 231.23 218.49 227.25 224.46 221.58 227.50 C 215.34 230.98 207.22 230.70 201.23 226.80 C 194.94 222.87 191.28 215.20 192.19 207.84 C 192.92 199.60 199.38 192.35 207.45 190.58 Z"
       id="path26" />
    <path
       fill="#000000"
       opacity="1.00"
       d=" M 294.46 190.57 C 301.53 188.87 309.41 191.40 314.11 196.96 C 319.15 202.68 320.36 211.36 317.16 218.26 C 313.80 225.94 305.22 230.85 296.89 229.82 C 287.78 229.06 279.94 221.22 279.18 212.11 C 277.90 202.41 284.90 192.59 294.46 190.57 Z"
       id="path28" />
    <path
       fill="#000000"
       opacity="1.00"
       d=" M 381.48 190.57 C 387.58 189.14 394.31 190.75 399.03 194.89 C 403.92 199.04 406.55 205.68 405.82 212.06 C 405.24 218.49 401.24 224.48 395.55 227.52 C 389.31 230.98 381.21 230.69 375.24 226.80 C 368.96 222.88 365.29 215.23 366.18 207.87 C 366.91 199.61 373.39 192.33 381.48 190.57 Z"
       id="path30" />
    <path
       fill="#000000"
       opacity="1.00"
       d=" M 347.14 278.33 C 367.36 270.40 389.76 268.14 411.16 271.81 C 449.13 277.90 483.21 303.57 499.75 338.26 C 507.71 354.20 511.55 371.99 512.00 389.75 L 512.00 392.48 C 511.52 410.13 507.69 427.80 499.79 443.66 C 483.07 478.80 448.34 504.70 409.81 510.40 C 404.07 511.48 398.23 511.62 392.42 512.00 L 389.52 512.00 C 371.85 511.52 354.16 507.68 338.29 499.77 C 303.57 483.23 277.88 449.11 271.80 411.11 C 267.50 386.05 271.39 359.61 282.90 336.92 C 296.09 310.34 319.47 289.04 347.14 278.33 M 380.60 310.72 C 356.62 313.69 334.46 328.15 321.96 348.81 C 310.62 367.10 307.14 390.06 312.56 410.89 C 316.91 428.40 327.46 444.26 341.79 455.21 C 354.95 465.40 371.36 471.31 388.00 471.87 C 406.14 472.62 424.47 466.97 439.02 456.10 C 453.60 445.39 464.45 429.65 469.12 412.15 C 473.40 396.56 472.79 379.68 467.45 364.43 C 461.31 346.61 448.65 331.16 432.47 321.52 C 417.06 312.21 398.45 308.38 380.60 310.72 Z"
       id="path32" />
    <path
       fill="#000000"
       opacity="1.00"
       d=" M 120.43 277.58 C 131.29 274.69 143.32 282.78 144.70 293.93 C 146.72 304.75 138.13 315.97 127.15 316.82 C 116.92 318.21 106.62 310.32 105.30 300.08 C 103.49 290.12 110.53 279.67 120.43 277.58 Z"
       id="path34" />
    <path
       fill="#000000"
       opacity="1.00"
       d=" M 207.47 277.57 C 216.94 275.17 227.54 280.86 230.72 290.10 C 233.60 297.67 231.27 306.85 225.07 312.08 C 219.34 317.15 210.61 318.38 203.69 315.14 C 196.05 311.77 191.16 303.23 192.18 294.94 C 192.87 286.66 199.36 279.34 207.47 277.57 Z"
       id="path36" />
    <path
       fill="#000000"
       opacity="1.00"
       d=" M 377.44 335.36 C 382.80 330.29 391.05 328.69 397.94 331.29 C 405.26 333.90 410.62 341.15 410.90 348.94 C 411.14 356.29 410.93 363.65 411.00 371.00 C 417.21 371.12 423.92 370.22 429.54 373.48 C 437.79 377.76 441.98 388.23 439.01 397.03 C 436.60 405.16 428.51 411.03 420.05 410.96 C 410.02 410.99 399.97 411.11 389.94 410.90 C 380.03 410.63 371.35 401.93 371.10 392.02 C 370.87 378.36 371.06 364.69 371.01 351.03 C 370.85 345.20 373.09 339.29 377.44 335.36 Z"
       id="path38" />
    <path
       fill="#000000"
       opacity="1.00"
       d=" M 120.49 364.57 C 126.58 363.14 133.30 364.75 138.02 368.87 C 142.94 373.04 145.57 379.72 144.82 386.13 C 144.21 392.51 140.25 398.45 134.60 401.49 C 128.33 405.00 120.16 404.70 114.16 400.75 C 107.92 396.82 104.29 389.20 105.18 381.87 C 105.91 373.61 112.40 366.32 120.49 364.57 Z"
       id="path40" />
    <path
       fill="#000000"
       opacity="1.00"
       d=" M 207.46 364.57 C 213.34 363.19 219.81 364.62 224.50 368.45 C 229.74 372.58 232.60 379.49 231.82 386.13 C 231.21 392.52 227.24 398.46 221.58 401.50 C 215.32 405.00 207.16 404.70 201.17 400.76 C 194.92 396.82 191.29 389.19 192.18 381.86 C 192.91 373.62 199.38 366.34 207.46 364.57 Z"
       id="path42" />
  </g>
  <path
     style="opacity:1;fill:#ffffff;fill-opacity:1;fill-rule:nonzero"
     d="M 79.408758,637.16142 C 50.550789,630.88548 24.648306,610.66736 11.714381,584.32277 0.02523807,560.51361 0.94915237,581.0576 0.94915237,344.94915 l 0,-209.49152 3.06499243,-10.57517 C 12.956615,94.028205 33.586834,70.399512 62.038858,58.424221 75.331942,52.829239 88.883836,50.711864 111.40046,50.711864 l 20.39615,0 0,-15.16512 c 0,-12.68256 0.47083,-16.13772 2.87614,-21.106417 8.64276,-17.8535708 34.41852,-17.8535708 43.06128,0 2.40531,4.968697 2.87614,8.423857 2.87614,21.106417 l 0,15.16512 56.94915,0 56.94915,0 0.0298,-15.254237 c 0.0362,-18.582306 2.21654,-24.638509 10.95114,-30.4187937 4.61676,-3.0552278 7.30046,-3.8184945 13.42613,-3.8184945 8.83726,0 15.07614,3.4462292 20.46094,11.3022212 2.93281,4.278748 3.31655,6.479048 3.74596,21.478206 l 0.4784,16.711098 57.37995,0 57.37993,0 0.44674,-17.399141 c 0.43057,-16.769428 0.58827,-17.584494 4.35712,-22.52047 6.9196,-9.062385 19.37015,-12.5996762 28.36034,-8.0573743 11.95916,6.0423685 14.74491,11.7448923 15.57421,31.8808883 l 0.64979,15.777502 25.24417,0.654534 c 21.1768,0.549074 26.77345,1.142469 34.73568,3.682911 32.64845,10.416857 56.08272,33.523099 67.43355,66.489626 2.99072,8.68605 3.04088,10.00037 3.46724,90.84746 0.23794,45.11864 0.0644,84.02999 -0.38571,86.46966 -1.01851,5.52085 -8.02697,13.67628 -13.84017,16.1052 -12.41087,5.18558 -26.47203,-0.7894 -32.38502,-13.7613 -0.67988,-1.49153 -1.54189,-39.0313 -1.91557,-83.42171 l -0.6794,-80.70985 -4.45661,-9.04929 c -5.17455,-10.5071 -13.65936,-18.73094 -24.69593,-23.93637 -6.9108,-3.25949 -9.11038,-3.55362 -29.99762,-4.011405 l -22.53998,-0.494006 -0.60234,16.065551 c -0.66218,17.66168 -2.11449,22.07108 -9.24589,28.07176 -8.46966,7.12675 -19.13245,7.65578 -28.77383,1.42762 -8.40453,-5.42919 -10.53526,-11.42601 -10.53526,-29.651 l 0,-15.647236 -57.62712,0 -57.62712,0 -0.0298,14.576266 c -0.0339,16.61333 -2.10691,23.09477 -9.33045,29.17298 -12.10749,10.18777 -29.79699,6.52834 -36.62509,-7.57664 -2.35014,-4.85487 -2.82819,-8.40564 -2.82819,-21.00749 l 0,-15.165116 -56.94915,0 -56.94915,0 0,14.958806 c 0,16.75409 -1.33502,21.41487 -7.98984,27.89378 -9.38101,9.13303 -23.8455,8.9279 -33.24486,-0.47146 -6.21352,-6.21353 -7.56197,-11.31115 -7.5713,-28.62217 l -0.008,-14.03766 -22.06477,0.478335 c -21.752311,0.471565 -22.192444,0.541205 -31.080267,4.917805 -11.168117,5.49949 -21.350747,16.21541 -25.742286,27.09048 l -3.146575,7.79208 0,205.42373 0,205.42373 3.165813,7.8435 c 4.436829,10.99252 15.463738,22.54923 26.282286,27.54506 l 8.518002,3.93348 105.084747,0.67796 c 94.43254,0.60925 105.49708,0.90544 109.15254,2.92202 4.54541,2.50753 9.05793,7.10315 11.35599,11.56511 2.13045,4.13657 1.90412,16.10899 -0.38747,20.49546 -2.56836,4.9162 -8.75356,10.62202 -13.42967,12.38877 -6.08115,2.29763 -209.326139,1.75942 -220.096192,-0.58282 z"
     id="path4176"
     inkscape:connector-curvature="0"
     transform="scale(0.8,0.8)" />
  <path
     style="opacity:1;fill:#ffffff;fill-opacity:1;fill-rule:nonzero"
     d="m 467.38983,637.68339 c -59.02449,-8.5056 -108.97353,-53.05976 -124.0608,-110.66129 -9.14642,-34.92001 -5.732,-69.93759 10.01881,-102.75091 40.3153,-83.988 144.60402,-111.8184 221.03133,-58.98423 11.67756,8.07268 31.78333,28.40007 39.15268,39.58425 15.54224,23.5878 23.90869,49.57839 25.01351,77.70506 0.77072,19.62087 -0.55717,30.82331 -5.79844,48.91738 -20.43751,70.55492 -92.31728,116.71499 -165.35709,106.18974 z m 50.16949,-51.37454 c 43.73162,-13.7449 72.49899,-52.36025 72.53287,-97.36321 0.0346,-45.88627 -29.7477,-85.41309 -73.94991,-98.14584 -13.94301,-4.01639 -39.87889,-4.28959 -53.49821,-0.56354 -27.48062,7.51831 -52.09107,27.71588 -64.45478,52.89745 -8.42876,17.16713 -10.6701,26.73407 -10.6701,45.54426 0,18.82545 2.24093,28.37654 10.69994,45.60436 13.42367,27.33897 38.95138,47.09758 69.84867,54.0633 12.68937,2.8608 37.10621,1.85594 49.49152,-2.03678 z"
     id="path4178"
     inkscape:connector-curvature="0"
     transform="scale(0.8,0.8)" />
  <path
     style="opacity:1;fill:#ffffff;fill-opacity:1;fill-rule:nonzero"
     d="m 472.81356,284.72223 c -5.05317,-2.25553 -10.88957,-8.37728 -12.79509,-13.42067 -6.77588,-17.93384 10.00617,-37.06492 28.2132,-32.16227 15.95149,4.29529 22.96497,21.50781 14.58802,35.802 -5.88353,10.03949 -19.49024,14.47479 -30.00613,9.78094 z"
     id="path4180"
     inkscape:connector-curvature="0"
     transform="scale(0.8,0.8)" />
  <path
     style="opacity:1;fill:#ffffff;fill-opacity:1;fill-rule:nonzero"
     d="m 479.54723,511.18642 c -5.35714,-2.33384 -11.72477,-9.14952 -13.74096,-14.70783 -2.10923,-5.81478 -2.3438,-58.01334 -0.29388,-65.39717 1.9615,-7.06536 9.94977,-14.95456 17.08886,-16.87692 11.01812,-2.96687 23.03688,2.53358 27.62867,12.64441 1.99031,4.38255 2.53038,8.88934 2.55386,21.31176 l 0.0298,15.75389 10.13024,0.65012 c 12.65027,0.81184 19.29976,4.71351 23.76968,13.94713 5.72124,11.8185 0.74365,25.92093 -11.1877,31.6968 -5.35393,2.59179 -8.21136,2.87089 -28.90303,2.82306 -15.95049,-0.0369 -24.21786,-0.6003 -27.07552,-1.84525 z"
     id="path4182"
     inkscape:connector-curvature="0"
     transform="scale(0.8,0.8)" />
  <path
     style="opacity:1;fill:#ffffff;fill-opacity:1;fill-rule:nonzero"
     d="m 365.01695,285.12444 c -4.33145,-1.72211 -10.54286,-7.60338 -13.00241,-12.31134 -2.42923,-4.64991 -2.46048,-14.77596 -0.0633,-20.51318 2.42116,-5.79465 9.11952,-11.32065 15.95271,-13.16063 13.94614,-3.75531 27.96421,5.97451 29.34741,20.36976 0.85097,8.85627 -0.24176,12.56313 -5.45314,18.49856 -6.94666,7.91182 -17.63664,10.75256 -26.78125,7.11683 z"
     id="path4184"
     inkscape:connector-curvature="0"
     transform="scale(0.8,0.8)" />
  <path
     style="opacity:1;fill:#ffffff;fill-opacity:1;fill-rule:nonzero"
     d="m 254.15626,283.86017 c -14.94029,-7.5952 -17.8203,-26.14229 -5.909,-38.05359 11.68731,-11.68732 30.72473,-8.92369 38.09883,5.53074 10.53026,20.64101 -11.59335,42.99349 -32.18983,32.52285 z"
     id="path4186"
     inkscape:connector-curvature="0"
     transform="scale(0.8,0.8)" />
  <path
     style="opacity:1;fill:#ffffff;fill-opacity:1;fill-rule:nonzero"
     d="m 145.3152,283.59322 c -14.67138,-7.41175 -17.79953,-24.79276 -6.64082,-36.89853 12.06191,-13.08563 31.58462,-10.40759 39.22779,5.38109 3.35127,6.92279 3.40054,13.26943 0.15786,20.331 -2.96244,6.45128 -5.9863,9.34226 -12.71017,12.15168 -6.93432,2.89734 -12.9638,2.60685 -20.03466,-0.96524 z"
     id="path4188"
     inkscape:connector-curvature="0"
     transform="scale(0.8,0.8)" />
  <path
     style="opacity:1;fill:#ffffff;fill-opacity:1;fill-rule:nonzero"
     d="m 145.65783,392.94277 c -13.01913,-6.64033 -17.41837,-22.7484 -9.42143,-34.49707 9.36094,-13.75257 25.34644,-15.25358 37.11499,-3.48503 10.78772,10.78771 9.05938,26.9487 -3.90944,36.55563 -5.05582,3.7452 -17.74578,4.5063 -23.78412,1.42647 z"
     id="path4190"
     inkscape:connector-curvature="0"
     transform="scale(0.8,0.8)" />
  <path
     style="opacity:1;fill:#ffffff;fill-opacity:1;fill-rule:nonzero"
     d="m 253.99361,392.79933 c -5.62864,-2.77285 -11.75977,-10.97059 -12.94999,-17.31504 -1.80813,-9.63813 4.10677,-21.30071 13.18361,-25.99453 10.83932,-5.60523 26.66162,-0.27589 32.01542,10.78358 4.75801,9.82874 3.43491,19.60091 -3.68484,27.21569 -7.08129,7.57364 -19.34267,9.85312 -28.5642,5.3103 z"
     id="path4192"
     inkscape:connector-curvature="0"
     transform="scale(0.8,0.8)" />
  <path
     style="opacity:1;fill:#ffffff;fill-opacity:1;fill-rule:nonzero"
     d="m 253.03228,501.02923 c -8.56983,-5.22583 -13.85615,-16.20375 -12.04196,-25.0071 3.87078,-18.78291 26.62849,-26.29644 40.46481,-13.3596 16.03544,14.993 5.32272,40.94097 -16.89629,40.92562 -4.79336,-0.003 -8.79101,-0.8908 -11.52656,-2.55892 z"
     id="path4194"
     inkscape:connector-curvature="0"
     transform="scale(0.8,0.8)" />
  <path
     style="opacity:1;fill:#ffffff;fill-opacity:1;fill-rule:nonzero"
     d="m 143.8938,500.51011 c -13.27068,-8.94311 -15.54048,-25.06643 -5.18859,-36.85658 5.01091,-5.70711 11.64098,-8.0349 20.46913,-7.18663 18.6076,1.78795 27.92993,24.53194 15.74394,38.41102 -5.74904,6.54779 -10.50545,8.7153 -19.125,8.7153 -5.3731,0 -8.5433,-0.82139 -11.89948,-3.08311 z"
     id="path4196"
     inkscape:connector-curvature="0"
     transform="scale(0.8,0.8)" />
</svg>
