<?xml version="1.0" encoding="UTF-8" standalone="no"?>
<svg
   xmlns:dc="http://purl.org/dc/elements/1.1/"
   xmlns:cc="http://creativecommons.org/ns#"
   xmlns:rdf="http://www.w3.org/1999/02/22-rdf-syntax-ns#"
   xmlns:svg="http://www.w3.org/2000/svg"
   xmlns="http://www.w3.org/2000/svg"
   xmlns:sodipodi="http://sodipodi.sourceforge.net/DTD/sodipodi-0.dtd"
   xmlns:inkscape="http://www.inkscape.org/namespaces/inkscape"
   width="512pt"
   height="512pt"
   viewBox="0 0 512 512"
   version="1.1"
   id="svg2"
   inkscape:version="0.91 r13725"
   sodipodi:docname="duration.svg">
  <metadata
     id="metadata18">
    <rdf:RDF>
      <cc:Work
         rdf:about="">
        <dc:format>image/svg+xml</dc:format>
        <dc:type
           rdf:resource="http://purl.org/dc/dcmitype/StillImage" />
      </cc:Work>
    </rdf:RDF>
  </metadata>
  <defs
     id="defs16" />
  <sodipodi:namedview
     pagecolor="#ffffff"
     bordercolor="#666666"
     borderopacity="1"
     objecttolerance="10"
     gridtolerance="10"
     guidetolerance="10"
     inkscape:pageopacity="0"
     inkscape:pageshadow="2"
     inkscape:window-width="1536"
     inkscape:window-height="801"
     id="namedview14"
     showgrid="false"
     inkscape:zoom="0.7375"
     inkscape:cx="320"
     inkscape:cy="320"
     inkscape:window-x="-8"
     inkscape:window-y="-8"
     inkscape:window-maximized="1"
     inkscape:current-layer="svg2" />
  <g
     id="#ffffffff">
    <path
       fill="#ffffff"
       opacity="1.00"
       d=" M 0.00 0.00 L 512.00 0.00 L 512.00 252.35 C 511.31 203.95 495.59 155.88 467.30 116.58 C 431.97 66.75 376.94 31.35 316.85 20.19 C 275.29 12.32 231.63 15.61 191.78 29.83 C 133.71 50.17 84.34 93.92 57.13 149.10 C 46.59 170.17 39.35 192.84 35.35 216.05 C 31.11 210.14 27.83 202.07 19.92 200.43 C 10.74 197.71 0.72 204.99 0.00 214.44 L 0.00 0.00 Z"
       id="path5" />
    <path
       fill="#ffffff"
       opacity="1.00"
       d=" M 156.22 83.28 C 188.78 61.33 227.68 48.90 266.94 48.07 C 301.55 47.27 336.36 55.13 367.14 71.00 C 397.22 86.41 423.37 109.37 442.65 137.12 C 458.63 160.01 469.96 186.15 475.64 213.49 C 485.02 257.99 479.15 305.52 459.32 346.45 C 443.47 379.37 418.72 407.94 388.42 428.35 C 355.17 450.93 315.24 463.46 275.05 463.94 C 248.55 464.76 221.87 460.30 197.16 450.64 C 163.24 437.54 133.12 414.78 111.28 385.70 C 109.31 383.09 107.44 380.24 104.59 378.50 C 98.89 374.86 90.89 375.24 85.75 379.72 C 79.51 384.70 78.13 394.62 82.85 401.08 C 98.34 422.63 117.66 441.42 139.61 456.36 C 177.99 482.58 224.52 496.65 271.01 496.00 C 313.69 496.21 356.40 484.84 393.17 463.13 C 426.08 443.89 454.29 416.68 474.67 384.47 C 497.87 348.22 510.68 305.59 512.00 262.61 L 512.00 512.00 L 0.00 512.00 L 0.00 217.58 C 0.43 220.49 1.54 223.27 3.24 225.67 C 13.96 241.62 24.50 257.70 35.28 273.61 C 40.43 281.15 52.22 282.12 58.71 275.79 C 71.99 262.71 85.08 249.43 98.30 236.28 C 103.18 232.04 105.23 224.94 103.11 218.79 C 100.36 209.84 89.08 205.27 80.82 209.63 C 75.25 212.88 71.45 218.35 66.72 222.65 C 70.91 197.29 79.63 172.65 92.74 150.52 C 108.47 123.71 130.37 100.55 156.22 83.28 M 262.93 104.04 C 254.77 104.38 247.79 111.86 248.01 120.02 C 247.99 168.02 247.99 216.02 248.01 264.01 C 247.98 269.15 250.19 274.46 254.47 277.47 C 286.14 301.19 317.79 324.95 349.44 348.70 C 353.48 351.87 359.03 352.87 363.93 351.34 C 369.91 349.67 374.51 344.10 375.15 337.95 C 375.80 332.31 373.33 326.45 368.69 323.14 C 339.15 300.72 309.54 278.38 279.99 255.97 C 280.01 212.33 279.99 168.68 280.00 125.04 C 279.96 121.36 280.34 117.49 278.82 114.04 C 276.34 107.78 269.68 103.45 262.93 104.04 Z"
       id="path7" />
  </g>
  <g
     id="#000000ff">
    <path
       fill="#000000"
       opacity="1.00"
       d=" M 191.78 29.83 C 231.63 15.61 275.29 12.32 316.85 20.19 C 376.94 31.35 431.97 66.75 467.30 116.58 C 495.59 155.88 511.31 203.95 512.00 252.35 L 512.00 262.61 C 510.68 305.59 497.87 348.22 474.67 384.47 C 454.29 416.68 426.08 443.89 393.17 463.13 C 356.40 484.84 313.69 496.21 271.01 496.00 C 224.52 496.65 177.99 482.58 139.61 456.36 C 117.66 441.42 98.34 422.63 82.85 401.08 C 78.13 394.62 79.51 384.70 85.75 379.72 C 90.89 375.24 98.89 374.86 104.59 378.50 C 107.44 380.24 109.31 383.09 111.28 385.70 C 133.12 414.78 163.24 437.54 197.16 450.64 C 221.87 460.30 248.55 464.76 275.05 463.94 C 315.24 463.46 355.17 450.93 388.42 428.35 C 418.72 407.94 443.47 379.37 459.32 346.45 C 479.15 305.52 485.02 257.99 475.64 213.49 C 469.96 186.15 458.63 160.01 442.65 137.12 C 423.37 109.37 397.22 86.41 367.14 71.00 C 336.36 55.13 301.55 47.27 266.94 48.07 C 227.68 48.90 188.78 61.33 156.22 83.28 C 130.37 100.55 108.47 123.71 92.74 150.52 C 79.63 172.65 70.91 197.29 66.72 222.65 C 71.45 218.35 75.25 212.88 80.82 209.63 C 89.08 205.27 100.36 209.84 103.11 218.79 C 105.23 224.94 103.18 232.04 98.30 236.28 C 85.08 249.43 71.99 262.71 58.71 275.79 C 52.22 282.12 40.43 281.15 35.28 273.61 C 24.50 257.70 13.96 241.62 3.24 225.67 C 1.54 223.27 0.43 220.49 0.00 217.58 L 0.00 214.44 C 0.72 204.99 10.74 197.71 19.92 200.43 C 27.83 202.07 31.11 210.14 35.35 216.05 C 39.35 192.84 46.59 170.17 57.13 149.10 C 84.34 93.92 133.71 50.17 191.78 29.83 Z"
       id="path10" />
    <path
       fill="#000000"
       opacity="1.00"
       d=" M 262.93 104.04 C 269.68 103.45 276.34 107.78 278.82 114.04 C 280.34 117.49 279.96 121.36 280.00 125.04 C 279.99 168.68 280.01 212.33 279.99 255.97 C 309.54 278.38 339.15 300.72 368.69 323.14 C 373.33 326.45 375.80 332.31 375.15 337.95 C 374.51 344.10 369.91 349.67 363.93 351.34 C 359.03 352.87 353.48 351.87 349.44 348.70 C 317.79 324.95 286.14 301.19 254.47 277.47 C 250.19 274.46 247.98 269.15 248.01 264.01 C 247.99 216.02 247.99 168.02 248.01 120.02 C 247.79 111.86 254.77 104.38 262.93 104.04 Z"
       id="path12" />
  </g>
  <path
     style="opacity:1;fill:#ffffff;fill-opacity:1;fill-rule:nonzero"
     d="m 300.74123,617.30331 c -69.09814,-8.86647 -134.40497,-43.39035 -179.04961,-94.65298 -20.50369,-23.54309 -23.499015,-29.74162 -19.2223,-39.77863 2.88178,-6.76325 8.00608,-10.68732 14.9831,-11.47373 9.2876,-1.04685 13.34175,1.41314 23.7326,14.40051 17.29362,21.61508 37.73977,40.26077 60.4421,55.11969 78.50519,51.38249 186.78801,52.93073 270.17326,3.86294 C 600.18894,469.23128 639.40091,300.93067 557.53228,176.81356 524.82826,127.23255 477.46729,91.022408 421.12225,72.520351 309.53919,35.87975 186.96338,78.718763 122.30337,176.95455 103.59969,205.37043 89.405418,240.81268 83.532671,273.76271 l -0.966681,5.42373 9.052147,-8.45628 c 9.808683,-9.16303 13.015233,-10.5756 21.441323,-9.44541 6.84453,0.91804 14.28328,7.68523 15.48412,14.08621 2.02233,10.77996 0.62854,12.9072 -26.35875,40.22981 -29.742118,30.11169 -33.819728,33.41618 -41.234198,33.41618 -10.793805,0 -12.554312,-1.80952 -35.992928,-36.99497 -12.030279,-18.05954 -22.5467047,-34.6597 -23.3698331,-36.88922 -4.464992,-12.0939 9.0188461,-27.21364 21.7713381,-24.41273 5.235354,1.14988 11.119721,6.11779 16.487641,13.91979 l 4.236929,6.15817 5.060816,-20.21255 C 55.720465,224.32186 60.87011,209.96948 71.539786,188.16862 112.76293,103.93928 192.40015,43.423889 285.26144,25.764051 c 29.40482,-5.592045 73.38581,-6.25627 101.45042,-1.53216 49.80978,8.38447 93.25389,26.99112 133.26824,57.077363 93.72261,70.468746 137.13922,188.044266 112.12382,303.639896 -6.21298,28.71001 -20.93155,65.37145 -36.19547,90.15668 -47.91779,77.80791 -128.16469,130.13889 -217.11759,141.58777 -18.24399,2.34814 -61.84724,2.68875 -78.04963,0.60971 z"
     id="path4146"
     inkscape:connector-curvature="0"
     transform="scale(0.8,0.8)" />
  <path
     style="opacity:1;fill:#ffffff;fill-opacity:1;fill-rule:nonzero"
     d="m 443.54122,438.61014 c -1.93029,-0.6082 -31.72453,-22.27734 -66.20943,-48.15362 -50.3841,-37.80653 -63.07815,-47.95331 -64.62597,-51.65777 -1.60199,-3.8341 -1.92531,-20.53436 -1.92109,-99.22978 0.005,-92.02416 0.079,-94.74105 2.69947,-99.03899 7.45452,-12.22639 22.15677,-12.98082 31.71022,-1.62719 l 3.55134,4.22053 0,88.39941 0,88.39941 56.61017,42.80057 c 31.19503,23.58526 57.97985,44.81625 59.66102,47.29031 5.50904,8.10726 3.3277,19.79339 -4.77109,25.56024 -4.53545,3.22953 -11.86446,4.56193 -16.70464,3.03688 z"
     id="path4148"
     inkscape:connector-curvature="0"
     transform="scale(0.8,0.8)" />
</svg>
